<svg xmlns="http://www.w3.org/2000/svg" viewBox="0 0 64 64" fill="none">
  <path
    d="M32 8c-13.255 0-24 10.745-24 24s10.745 24 24 24c3.129 0 6.118-.599 8.859-1.687L52 58l-2.453-10.223A23.89 23.89 0 0 0 56 32C56 18.745 45.255 8 32 8Z"
    fill="#FF6B3D"
  />
  <path
    d="M35.729 16c4.458 6.026 4.141 10.435 1.716 14.482 2.545 1.291 4.497 3.834 4.497 7.262 0 5.369-4.013 9.756-9.942 9.756-5.928 0-9.939-4.387-9.939-9.756 0-5.696 3.599-9.061 7.244-11.653 3.57-2.492 5.714-4.672 6.424-10.091Z"
    fill="#111111"
  />
</svg>
