<svg xmlns="http://www.w3.org/2000/svg" viewBox="0 0 120 120" fill="none">
  <rect width="120" height="120" rx="28" fill="#fff"/>
  <path d="M89.6 58.8H61.1v11.5h16.3c-.7 3.7-2.8 6.8-6 8.9v7.4h9.7c5.7-5.2 8.9-12.9 8.9-22.1 0-1.9-.1-3.8-.4-5.7Z" fill="#4285F4"/>
  <path d="M61.1 93.7c8.1 0 14.9-2.7 19.9-7.3l-9.7-7.4c-2.7 1.8-6.1 2.9-10.2 2.9-7.9 0-14.5-5.3-16.9-12.5h-10v7.7a30 30 0 0 0 26.9 16.6Z" fill="#34A853"/>
  <path d="M44.2 69.4a18 18 0 0 1 0-11.4v-7.7h-10a30 30 0 0 0 0 26.8l10-7.7Z" fill="#FBBC05"/>
  <path d="M61.1 46.2c4.4 0 8.3 1.5 11.4 4.4l8.6-8.6C76 36.9 69.2 34 61.1 34a30 30 0 0 0-26.9 16.3l10 7.7c2.4-7.2 9-11.8 16.9-11.8Z" fill="#EA4335"/>
</svg>
